# AST/ASF file generated using VICON BodyLanguage
# -----------------------------------------------
:version 1.10
:name VICON
:units
  mass 1.0
  length 0.45
  angle deg
:documentation
   .ast/.asf automatically generated from VICON data using
   VICON BodyBuilder and BodyLanguage model FoxedUp or BRILLIANT.MOD
:root
   order TX TY TZ RX RY RZ
   axis XYZ
   position 0 0 0  
   orientation 0 0 0 
:bonedata
  begin
     id 1 
     name lhipjoint
     direction 0.624716 -0.669793 0.401383 
     length 2.38238 
     axis 0 0 0  XYZ
  end
  begin
     id 2 
     name lfemur
     direction 0.34202 -0.939693 0  
     length 6.4574  
     axis 0 0 20  XYZ
    dof rx ry rz
    limits (-160.0 20.0)
           (-70.0 70.0)
           (-60.0 70.0)
  end
  begin
     id 3 
     name ltibia
     direction 0.34202 -0.939693 0   
     length 7.68739   
     axis 0 0 20   XYZ
    dof rx
    limits (-10.0 170.0)
  end
  begin
     id 4 
     name lfoot
     direction 0.0681309 -0.187188 0.979959   
     length 2.46615   
     axis -90 7.62852e-016 20   XYZ
    dof rx rz
    limits (-45.0 90.0)
           (-70.0 20.0)
  end
  begin
     id 5 
     name ltoes
     direction 1.53566e-011 -4.21819e-011 1   
     length 1.2376   
     axis -90 7.62852e-016 20   XYZ
    dof rx
    limits (-90.0 20.0)
  end
  begin
     id 6 
     name rhipjoint
     direction -0.644473 -0.655875 0.393043   
     length 2.43293  
     axis 0 0 0  XYZ 
  end
  begin
     id 7 
     name rfemur
     direction -0.34202 -0.939693 0   
     length 6.7025   
     axis 0 0 -20   XYZ
    dof rx ry rz
    limits (-160.0 20.0)
           (-70.0 70.0)
           (-70.0 60.0)
  end
  begin
     id 8 
     name rtibia
     direction -0.34202 -0.939693 0   
     length 7.80547   
     axis 0 0 -20   XYZ
    dof rx
    limits (-10.0 170.0)
 end
 begin
     id 9 
     name rfoot
     direction -0.0756734 -0.207911 0.975216   
     length 2.40315  
     axis -90 -7.62852e-016 -20   XYZ
    dof rx rz
    limits (-45.0 90.0)
           (-20.0 70.0)
  end
  begin
     id 10 
     name rtoes
     direction -1.5353e-011 -4.21879e-011 1   
     length 1.20477   
     axis -90 -7.62852e-016 -20   XYZ
    dof rx
    limits (-90.0 20.0)
  end
  begin
     id 11 
     name lowerback
     direction 0.0160353 0.987463 -0.157037   
     length 2.18572   
     axis 0 0 0   XYZ
    dof rx ry rz
    limits (-20.0 45.0)
           (-30.0 30.0)
           (-30.0 30.0)
  end
  begin
     id 12 
     name upperback
     direction -0.00499661 0.999756 0.0215076   
     length 2.18016   
     axis 0 0 0   XYZ
    dof rx ry rz
    limits (-20.0 45.0)
           (-30.0 30.0)
           (-30.0 30.0)
  end
  begin
     id 13 
     name thorax
     direction -0.00921346 0.995333 0.0960619   
     length 2.24923   
     axis 0 0 0   XYZ
    dof rx ry rz
    limits (-20.0 45.0)
           (-30.0 30.0)
           (-30.0 30.0)
  end
  begin
     id 14 
     name lowerneck
     direction 0.0274184 0.991181 0.12965   
     length 1.70911   
     axis 0 0 0   XYZ
    dof rx ry rz
    limits (-20.0 45.0)
           (-30.0 30.0)
           (-30.0 30.0)
  end
  begin
     id 15 
     name upperneck
     direction 0.0015627 0.999959 -0.00893559   
     length 1.69312   
     axis 0 0 0   XYZ
    dof rx ry rz
    limits (-20.0 45.0)
           (-30.0 30.0)
           (-30.0 30.0)
  end
  begin
     id 16
     name head
     direction -0.00230242 0.999856 -0.0168327  
     length 1.80241  
     axis 0 0 0   XYZ
    dof rx ry rz
    limits (-20.0 45.0)
           (-30.0 30.0)
           (-30.0 30.0)
  end
  begin
     id 17 
     name lclavicle
     direction 0.955523 0.290741 -0.0494489  
     length 3.84275  
     axis 0 0 0   XYZ
    dof ry rz
    limits (-20.0 10.0)
           (0.0 20.0)
  end
  begin
     id 18 
     name lhumerus
     direction 1 -4.48967e-011 -3.18382e-028   
     length 5.17714   
     axis 180 -30 -90   XYZ
    dof rx ry rz
    limits (-60.0 90.0)
           (-90.0 90.0)
           (-90.0 90.0)
  end
  begin
     id 19
     name lradius
     direction 1 -4.48968e-011 -2.22911e-027   
     length 3.43679   
     axis 180 -30 -90   XYZ
    dof rx
    limits (-10.0 170.0)
  end
  begin
     id 20
     name lwrist
     direction 1 -4.48951e-011 -6.32245e-027   
     length 1.7184   
     axis 3.57107e-015 90 90   XYZ
    dof ry
    limits (-180.0 0.0)
 end
  begin
     id 21 
     name lhand
     direction 1 -4.48924e-011 -1.26431e-026   
     length 0.573117   
     axis 8.06912e-015 90 90   XYZ
    dof rx rz
    limits (-90.0 90.0)
           (-45.0 45.0)
  end
  begin
     id 22 
     name lfingers
     direction 1 -4.49001e-011 -2.52965e-026   
     length 0.462062   
     axis 1.61381e-014 90 90   XYZ
    dof rx
    limits (0.0 90.0)
  end
  begin
     id 23
     name lthumb
     direction 0.707107 -6.35008e-011 0.707107   
     length 0.663431   
     axis -90 45 -1.62303e-014   XYZ
    dof rx rz
    limits (-45.0 45.0)
           (-45.0 45.0)
  end
  begin
     id 24 
     name rclavicle
     direction -0.963917 0.256881 -0.0698287   
     length 3.73057  
     axis 0 0 0   XYZ 
    dof ry rz
    limits (-10.0 20.0)
           (-20.0 0.0)
  end
  begin
     id 25 
     name rhumerus
     direction -1 -4.48962e-011 -2.73982e-027  
     length 5.23908   
     axis 180 30 90   XYZ
    dof rx ry rz
    limits (-90.0 60.0)
           (-90.0 90.0)
           (-90.0 90.0)
  end
  begin
     id 26 
     name rradius
     direction -1 -4.48968e-011 -4.33218e-027   
     length 3.46485   
     axis 180 30 90   XYZ
    dof rx
    limits (-10.0 170.0)
  end
  begin
     id 27 
     name rwrist
     direction -1 -4.48989e-011 -6.32372e-027   
     length 1.73243   
     axis 3.57107e-015 -90 -90   XYZ
    dof ry
    limits (-180.0 0.0)
  end
  begin
     id 28
     name rhand
     direction -1 -4.48948e-011 -1.26448e-026   
     length 0.608752   
     axis 8.06912e-015 -90 -90   XYZ
    dof rx rz
    limits (-90.0 90.0)
           (-45.0 45.0)
  end
  begin
     id 29
     name rfingers
     direction -1 -4.48962e-011 -2.52913e-026   
     length 0.490792   
     axis 1.61381e-014 -90 -90   XYZ
    dof rx
    limits (0.0 90.0)
  end
  begin
     id 30
     name rthumb
     direction -0.707107 -6.34878e-011 0.707107   
     length 0.704682   
     axis -90 -45 1.62303e-014   XYZ
    dof rx rz
    limits (-45.0 45.0)
           (-45.0 45.0)
  end
:hierarchy
  begin
    root lhipjoint rhipjoint lowerback
    lhipjoint lfemur
    lfemur ltibia
    ltibia lfoot
    lfoot ltoes
    rhipjoint rfemur
    rfemur rtibia
    rtibia rfoot
    rfoot rtoes
    lowerback upperback
    upperback thorax
    thorax lowerneck lclavicle rclavicle
    lowerneck upperneck
    upperneck head
    lclavicle lhumerus
    lhumerus lradius
    lradius lwrist
    lwrist lhand lthumb
    lhand lfingers
    rclavicle rhumerus
    rhumerus rradius
    rradius rwrist
    rwrist rhand rthumb
    rhand rfingers
  end

#!OML:ASF G:\JayActor3\Patient Classification 1\Patient 1\Session 6\male.ASF
:FULLY-SPECIFIED
:DEGREES
339
root 50.7077 15.6139 -25.0812 10.8458 -70.5039 -13.5159
lowerback 0.184044 -1.2669 3.50008
upperback 3.68803 -1.82306 0.661674
thorax 3.60939 -0.829757 -1.33123
lowerneck -4.32538 2.74879 4.19152
upperneck 9.3927 3.38784 -0.939098
head 3.93875 1.76022 -0.890411
rclavicle -1.81888e-014 8.94531e-015
rhumerus -34.5031 -6.52658 -86.6653
rradius 32.2617
rwrist -0.609333
rhand -20.7144 -7.86838
rfingers 7.12502
rthumb 5.65006 -37.7731
lclavicle -1.81888e-014 8.94531e-015
lhumerus -27.1602 0.0794748 86.5951
lradius 32.589
lwrist 19.5403
lhand -15.4058 11.6368
lfingers 7.12502
lthumb 10.7734 41.3405
rfemur -13.5063 4.70448 25.2381
rtibia 41.1049
rfoot -25.9845 -19.4417
rtoes -4.67334
lfemur -6.14861 10.8472 -17.158
ltibia 29.5276
lfoot -22.2078 7.7148
ltoes 1.29056
340
root 50.7107 15.611 -25.0615 10.7478 -70.5777 -13.4046
lowerback 0.212185 -1.28755 3.45569
upperback 3.71159 -1.84834 0.625378
thorax 3.61674 -0.842892 -1.34408
lowerneck -4.27198 2.77838 4.23542
upperneck 9.36374 3.42915 -0.968728
head 3.92116 1.78073 -0.906687
rclavicle 3.23025e-016 5.1684e-015
rhumerus -34.5573 -6.43218 -86.7125
rradius 32.2747
rwrist -0.637628
rhand -20.6421 -7.89835
rfingers 7.12502
rthumb 5.71992 -37.8012
lclavicle 3.23025e-016 5.1684e-015
lhumerus -27.032 -0.126345 86.632
lradius 32.8544
lwrist 19.5557
lhand -15.5112 11.7758
lfingers 7.12502
lthumb 10.6717 41.4848
rfemur -13.7003 4.82468 25.1137
rtibia 41.4524
rfoot -25.9284 -19.5
rtoes -5.14325
lfemur -6.12084 10.9461 -17.2789
ltibia 29.5121
lfoot -22.2397 7.65284
ltoes 1.53798
341
root 50.7137 15.6084 -25.0411 10.6824 -70.6483 -13.3249
lowerback 0.233419 -1.30853 3.422
upperback 3.73715 -1.87495 0.595991
thorax 3.62997 -0.856394 -1.35603
lowerneck -4.21987 2.80798 4.27392
upperneck 9.3416 3.47117 -1.00215
head 3.90629 1.80128 -0.923217
rclavicle 2.48481e-017 3.97569e-015
rhumerus -34.6023 -6.34246 -86.748
rradius 32.2803
rwrist -0.665824
rhand -20.57 -7.91913
rfingers 7.12502
rthumb 5.78954 -37.82
lclavicle 2.48481e-017 3.97569e-015
lhumerus -26.8934 -0.316839 86.6704
lradius 33.0981
lwrist 19.5799
lhand -15.6129 11.8261
lfingers 7.12502
lthumb 10.5736 41.5402
rfemur -13.8966 4.94093 24.9953
rtibia 41.7979
rfoot -25.8593 -19.5434
rtoes -5.60308
lfemur -6.09699 11.0389 -17.3918
ltibia 29.498
lfoot -22.2724 7.59503
ltoes 1.91809
342
root 50.7169 15.6061 -25.0202 10.6409 -70.7148 -13.2687
lowerback 0.251726 -1.32971 3.39815
upperback 3.76149 -1.90225 0.570416
thorax 3.64341 -0.870011 -1.36963
lowerneck -4.16356 2.83533 4.31291
upperneck 9.32839 3.51059 -1.04001
head 3.89386 1.82039 -0.941478
rclavicle 1.4064e-014 7.95139e-016
rhumerus -34.6534 -6.2621 -86.7777
rradius 32.2836
rwrist -0.683356
rhand -20.5214 -7.92282
rfingers 7.12502
rthumb 5.83641 -37.8224
lclavicle 1.4064e-014 7.95139e-016
lhumerus -26.7479 -0.493833 86.7077
lradius 33.3192
lwrist 19.6164
lhand -15.7028 11.8149
lfingers 7.12502
lthumb 10.4868 41.5333
rfemur -14.0928 5.058 24.8804
rtibia 42.1404
rfoot -25.7782 -19.5718
rtoes -6.05095
lfemur -6.07721 11.1268 -17.4987
ltibia 29.4876
lfoot -22.3053 7.54394
ltoes 2.24987
343
root 50.7201 15.6038 -24.9987 10.6143 -70.7747 -13.2313
lowerback 0.272831 -1.34982 3.38549
upperback 3.78595 -1.9283 0.546533
thorax 3.65522 -0.882732 -1.38762
lowerneck -4.11047 2.86036 4.34854
upperneck 9.32975 3.54648 -1.07418
head 3.88698 1.83786 -0.958022
rclavicle -2.8302e-014 5.96354e-015
rhumerus -34.7025 -6.18408 -86.8034
rradius 32.2749
rwrist -0.699524
rhand -20.5082 -7.89382
rfingers 7.12502
rthumb 5.84913 -37.7931
lclavicle -2.8302e-014 5.96354e-015
lhumerus -26.5897 -0.67318 86.7482
lradius 33.5197
lwrist 19.6501
lhand -15.7856 11.8292
lfingers 7.12502
lthumb 10.407 41.5517
rfemur -14.2818 5.18039 24.7685
rtibia 42.4804
rfoot -25.7005 -19.5782
rtoes -6.45316
lfemur -6.05691 11.2086 -17.5998
ltibia 29.4817
lfoot -22.3394 7.496
ltoes 2.47153
344
root 50.7234 15.6016 -24.9766 10.6093 -70.8283 -13.2137
lowerback 0.285269 -1.36856 3.3811
upperback 3.81367 -1.95334 0.526523
thorax 3.67527 -0.894601 -1.40651
lowerneck -4.0649 2.88409 4.37727
upperneck 9.34431 3.57992 -1.10014
head 3.8858 1.85426 -0.97061
rclavicle -1.6201e-014 -5.96354e-015
rhumerus -34.7422 -6.10957 -86.8235
rradius 32.2567
rwrist -0.709797
rhand -20.5099 -7.86155
rfingers 7.12502
rthumb 5.84758 -37.7609
lclavicle -1.6201e-014 -5.96354e-015
lhumerus -26.395 -0.848981 86.7933
lradius 33.6814
lwrist 19.6767
lhand -15.8502 11.8177
lfingers 7.12502
lthumb 10.3446 41.5433
rfemur -14.4716 5.30841 24.6586
rtibia 42.8189
rfoot -25.6125 -19.5772
rtoes -6.85712
lfemur -6.04143 11.2833 -17.6959
ltibia 29.4795
lfoot -22.3757 7.44882
ltoes 2.732
